<?xml version="1.0" standalone="no"?>
<!DOCTYPE svg PUBLIC "-//W3C//DTD SVG 20010904//EN"
 "http://www.w3.org/TR/2001/REC-SVG-20010904/DTD/svg10.dtd">
<svg version="1.0" xmlns="http://www.w3.org/2000/svg"
 width="1920.000000pt" height="1080.000000pt" viewBox="0 0 1920.000000 1080.000000"
 preserveAspectRatio="xMidYMid meet">

<g transform="translate(0.000000,1080.000000) scale(0.100000,-0.100000)"
fill="#000000" stroke="none">
<path d="M3835 7073 c-40 -21 -84 -62 -101 -95 -8 -15 -80 -346 -160 -735 -80
-390 -210 -1023 -289 -1408 -79 -385 -154 -750 -166 -810 -21 -100 -22 -115
-9 -159 26 -95 107 -156 205 -156 81 0 155 44 191 112 14 28 634 3021 634
3062 0 72 -52 151 -121 187 -47 24 -141 25 -184 2z"/>
<path d="M2170 6734 c-44 -19 -1203 -1174 -1230 -1226 -30 -56 -35 -109 -16
-165 14 -43 76 -108 624 -655 643 -642 627 -628 717 -628 38 0 123 40 152 71
53 58 68 161 34 234 -13 27 -184 205 -520 540 l-501 500 505 505 c347 347 509
517 520 542 31 77 13 174 -45 235 -55 59 -163 80 -240 47z"/>
<path d="M4961 6725 c-49 -28 -62 -42 -91 -97 -24 -45 -26 -124 -5 -176 11
-25 173 -195 520 -542 l505 -505 -501 -500 c-336 -335 -507 -513 -520 -540
-34 -73 -19 -176 34 -234 29 -31 114 -71 152 -71 90 0 74 -14 717 628 548 547
610 612 624 655 19 56 14 109 -16 165 -28 56 -1186 1208 -1232 1227 -58 23
-135 19 -187 -10z"/>
</g>
</svg>
